<svg width="32" height="32" viewBox="0 0 32 32" fill="none" xmlns="http://www.w3.org/2000/svg">
<mask id="mask0_478_663" style="mask-type:alpha" maskUnits="userSpaceOnUse" x="0" y="0" width="32" height="32">
<rect width="32" height="32" fill="#D9D9D9"/>
</mask>
<g mask="url(#mask0_478_663)">
<path d="M16.0013 15.1797C14.9013 15.1797 13.9596 14.7881 13.1763 14.0047C12.393 13.2214 12.0013 12.2797 12.0013 11.1797C12.0013 10.0797 12.393 9.13802 13.1763 8.35469C13.9596 7.57135 14.9013 7.17969 16.0013 7.17969C17.1013 7.17969 18.043 7.57135 18.8263 8.35469C19.6096 9.13802 20.0013 10.0797 20.0013 11.1797C20.0013 12.2797 19.6096 13.2214 18.8263 14.0047C18.043 14.7881 17.1013 15.1797 16.0013 15.1797ZM6.66797 24.8208V22.6259C6.66797 22.0754 6.82822 21.5605 7.14874 21.081C7.46925 20.6015 7.90045 20.2293 8.44234 19.9643C9.70045 19.3609 10.9594 18.9083 12.2192 18.6066C13.4791 18.3049 14.7398 18.1541 16.0013 18.1541C17.2628 18.1541 18.5235 18.3049 19.7834 18.6066C21.0432 18.9083 22.3022 19.3609 23.5603 19.9643C24.1022 20.2293 24.5334 20.6015 24.8539 21.081C25.1744 21.5605 25.3346 22.0754 25.3346 22.6259V24.8208H6.66797Z" fill="white"/>
</g>
</svg>
