<svg width="32" height="32" viewBox="0 0 32 32" fill="none" xmlns="http://www.w3.org/2000/svg">
<mask id="mask0_478_664" style="mask-type:alpha" maskUnits="userSpaceOnUse" x="0" y="0" width="32" height="32">
<rect width="32" height="32" fill="#D9D9D9"/>
</mask>
<g mask="url(#mask0_478_664)">
<path d="M9.7449 28.1535C9.1825 28.1535 8.70857 27.9608 8.3231 27.5753C7.93761 27.1898 7.74487 26.7159 7.74487 26.1535C7.74487 25.5911 7.93761 25.1172 8.3231 24.7317C8.70857 24.3463 9.1825 24.1535 9.7449 24.1535C10.3073 24.1535 10.7812 24.3463 11.1667 24.7317C11.5522 25.1172 11.7449 25.5911 11.7449 26.1535C11.7449 26.7159 11.5522 27.1898 11.1667 27.5753C10.7812 27.9608 10.3073 28.1535 9.7449 28.1535ZM22.2577 28.1535C21.6953 28.1535 21.2214 27.9608 20.8359 27.5753C20.4504 27.1898 20.2577 26.7159 20.2577 26.1535C20.2577 25.5911 20.4504 25.1172 20.8359 24.7317C21.2214 24.3463 21.6953 24.1535 22.2577 24.1535C22.8201 24.1535 23.294 24.3463 23.6795 24.7317C24.065 25.1172 24.2577 25.5911 24.2577 26.1535C24.2577 26.7159 24.065 27.1898 23.6795 27.5753C23.294 27.9608 22.8201 28.1535 22.2577 28.1535ZM7.19104 5.99967H24.55C25.1295 5.99967 25.5654 6.236 25.8577 6.70864C26.15 7.18128 26.1654 7.66804 25.9039 8.16891L22.0936 15.1125C21.9004 15.4373 21.6496 15.692 21.341 15.8766C21.0325 16.0612 20.6936 16.1535 20.3244 16.1535H10.8013L9.1808 19.1279C9.04405 19.333 9.03977 19.5552 9.16797 19.7945C9.29617 20.0339 9.48848 20.1535 9.7449 20.1535H24.2577V21.4869H9.7449C8.96713 21.4869 8.38678 21.1591 8.00387 20.5035C7.62096 19.848 7.61156 19.1894 7.97567 18.5279L9.98077 14.9535L5.0782 4.66634H2.66797V3.33301H5.92437L7.19104 5.99967Z" fill="white"/>
</g>
</svg>
